<?xml version="1.0" encoding="UTF-8"?><svg id="Layer_1" xmlns="http://www.w3.org/2000/svg" width="578.46" height="578.46" viewBox="0 0 578.46 578.46"><defs><style>.cls-1{fill:#29374f;}.cls-2{fill:#25344c;}</style></defs><path class="cls-2" d="M527.03,0c3.79,1.25,7.76,1.63,11.59,2.81,22.77,7.02,38.26,28.08,39.81,51.7l.03,468.87c-1.88,30.42-24.66,53.2-55.08,55.08l-468.87-.03c-23.18-1.61-43.48-16.03-51.14-38.11-1.45-4.19-1.94-8.55-3.38-12.72V50.84c1.53-3.99,1.88-8.22,3.24-12.3C8.95,21.31,23.41,7.83,40.67,2.54l10.74-2.54h475.63ZM333.28,248.55c.37-29.66-23.74-47.2-51.13-50.27-36.72-4.12-74.63,10.6-71.47,53.4,2.78,37.62,47.81,37.85,75.62,44.7,11.96,2.95,24.63,7.94,20.75,22.81-4.82,18.45-43.32,18.24-56.19,9.8-6.09-3.99-8.79-11.88-9.66-18.87l-.56,2.26h-31.07c-1.08,45.24,47.7,57.11,84.28,50.67,27.8-4.89,47.13-23.69,45.1-53.24-2.55-36.96-41.83-38.37-69.62-46.18-11.42-3.21-32.53-6.87-28.09-23.25,4.02-14.82,22.8-15.38,35.29-14.46,13.6,1,24.55,8.01,25.12,22.62h31.63ZM47.45,357.57h35.02l10.72-32.49,56.24-.31,10.99,32.8h36.15l-55.43-157.52-36.38-.12-57.31,157.64ZM407.28,199.97h-47.45v157.6h31.07v-130.49l30.27,130.52,32.38-.09,29.99-129.3v129.36h30.79l.85-.85v-155.91l-.85-.85h-47.17l-27.4,123.15-32.48-123.15Z"/><polygon class="cls-1" points="102.24 298.82 122.3 236.68 142.35 298.82 102.24 298.82"/></svg>