<svg xmlns="http://www.w3.org/2000/svg" viewBox="0 0 65 65" xmlns:v="https://vecta.io/nano"><defs><radialGradient id="A" cx="32.135" cy="28.274" r="7" gradientTransform="matrix(1.0585 .089302 -.16507 1.9566 2.7884 -28.124)" gradientUnits="userSpaceOnUse"><stop stop-color="#fff" offset="0"/><stop stop-color="#009bd8" offset="1"/></radialGradient><radialGradient id="B" cx="34.078" cy="33.655" r="8" gradientTransform="matrix(1.9034 .76037 -.40632 1.0171 -17.11 -25.82)" gradientUnits="userSpaceOnUse"><stop stop-color="#fff" offset="0"/><stop stop-color="#ff3044" offset="1"/></radialGradient><radialGradient id="C" cx="29.661" cy="35.661" r="8" gradientTransform="matrix(-1.7236 1.1486 -.5221 -.78349 99.579 27.599)" gradientUnits="userSpaceOnUse"><stop stop-color="#fff" offset="0"/><stop stop-color="#fcff7c" offset="1"/></radialGradient></defs><g transform="matrix(-.642788 .766044 -.766044 -.642788 115.108062 55.40869)"><path id="D" fill-rule="evenodd" d="M23.695 76.346h17.461v3.017H23.695z"/><use fill="#0019ff" stroke="#0019ff" href="#D" x="-17.461"/><use transform="rotate(1 44.876 -922.62)" fill="#0015ff" stroke="#0015ff" href="#D"/><use transform="rotate(2 44.876 -422.37)" fill="#01f" stroke="#01f" href="#D"/><use transform="rotate(3 44.876 -255.6)" fill="#000cff" stroke="#000cff" href="#D"/><use transform="rotate(4 44.876 -172.2)" fill="#0008ff" stroke="#0008ff" href="#D"/><use transform="rotate(5 44.876 -122.15)" fill="#0004ff" stroke="#0004ff" href="#D"/><use transform="rotate(6 44.876 -88.78)" fill="#00f" stroke="#00f" href="#D"/><use transform="rotate(7 44.876 -64.934)" fill="#0500ff" stroke="#0500ff" href="#D"/><use transform="rotate(8 44.876 -47.043)" fill="#0900ff" stroke="#0900ff" href="#D"/><use transform="rotate(9 44.876 -33.123)" fill="#0d00ff" stroke="#0d00ff" href="#D"/><use transform="rotate(10 44.876 -21.981)" fill="#10f" stroke="#10f" href="#D"/><use transform="rotate(11 44.876 -12.86)" fill="#1600ff" stroke="#1600ff" href="#D"/><use transform="rotate(12 44.876 -5.256)" fill="#1a00ff" stroke="#1a00ff" href="#D"/><use transform="rotate(13 44.876 1.183)" fill="#1e00ff" stroke="#1e00ff" href="#D"/><use transform="rotate(14 44.876 6.705)" fill="#20f" stroke="#20f" href="#D"/><use transform="rotate(15 44.876 11.495)" fill="#2700ff" stroke="#2700ff" href="#D"/><use transform="rotate(16 44.876 15.689)" fill="#2b00ff" stroke="#2b00ff" href="#D"/><use transform="rotate(17 44.876 19.393)" fill="#2f00ff" stroke="#2f00ff" href="#D"/><use transform="rotate(18 44.876 22.688)" fill="#30f" stroke="#30f" href="#D"/><use transform="rotate(19 44.876 25.638)" fill="#3800ff" stroke="#3800ff" href="#D"/><use transform="rotate(20 44.876 28.297)" fill="#3c00ff" stroke="#3c00ff" href="#D"/><use transform="rotate(21 44.876 30.704)" fill="#4000ff" stroke="#4000ff" href="#D"/><use transform="rotate(22 44.876 32.895)" fill="#40f" stroke="#40f" href="#D"/><use transform="rotate(23 44.876 34.898)" fill="#4800ff" stroke="#4800ff" href="#D"/><use transform="rotate(24 44.876 36.736)" fill="#4d00ff" stroke="#4d00ff" href="#D"/><use transform="rotate(25 44.876 38.429)" fill="#5100ff" stroke="#5100ff" href="#D"/><use transform="rotate(26 44.876 39.994)" fill="#50f" stroke="#50f" href="#D"/><use transform="rotate(27 44.876 41.445)" fill="#5900ff" stroke="#5900ff" href="#D"/><use transform="rotate(28 44.876 42.794)" fill="#5e00ff" stroke="#5e00ff" href="#D"/><use transform="rotate(29 44.876 44.052)" fill="#6200ff" stroke="#6200ff" href="#D"/><use transform="rotate(30 44.876 45.227)" fill="#60f" stroke="#60f" href="#D"/><use transform="rotate(31 44.876 46.329)" fill="#6a00ff" stroke="#6a00ff" href="#D"/><use transform="rotate(32 44.876 47.363)" fill="#6f00ff" stroke="#6f00ff" href="#D"/><use transform="rotate(33 44.876 48.336)" fill="#7300ff" stroke="#7300ff" href="#D"/><use transform="rotate(34 44.876 49.254)" fill="#70f" stroke="#70f" href="#D"/><use transform="rotate(35 44.876 50.12)" fill="#7b00ff" stroke="#7b00ff" href="#D"/><use transform="rotate(36 44.876 50.94)" fill="#8000ff" stroke="#8000ff" href="#D"/><use transform="rotate(37 44.876 51.717)" fill="#8400ff" stroke="#8400ff" href="#D"/><use transform="rotate(38 44.876 52.455)" fill="#80f" stroke="#80f" href="#D"/><use transform="rotate(39 44.876 53.156)" fill="#8c00ff" stroke="#8c00ff" href="#D"/><use transform="rotate(40 44.876 53.823)" fill="#9100ff" stroke="#9100ff" href="#D"/><use transform="rotate(41 44.876 54.459)" fill="#9500ff" stroke="#9500ff" href="#D"/><use transform="rotate(42 44.876 55.066)" fill="#90f" stroke="#90f" href="#D"/><use transform="rotate(43 44.876 55.646)" fill="#9d00ff" stroke="#9d00ff" href="#D"/><use transform="rotate(44 44.876 56.201)" fill="#a100ff" stroke="#a100ff" href="#D"/><use transform="rotate(45 44.876 56.733)" fill="#a600ff" stroke="#a600ff" href="#D"/><use transform="rotate(46 44.876 57.242)" fill="#a0f" stroke="#a0f" href="#D"/><use transform="rotate(47 44.876 57.731)" fill="#ae00ff" stroke="#ae00ff" href="#D"/><use transform="rotate(48 44.876 58.201)" fill="#b200ff" stroke="#b200ff" href="#D"/><use transform="rotate(49 44.876 58.653)" fill="#b700ff" stroke="#b700ff" href="#D"/><use transform="rotate(50 44.876 59.088)" fill="#b0f" stroke="#b0f" href="#D"/><use transform="rotate(51 44.876 59.506)" fill="#bf00ff" stroke="#bf00ff" href="#D"/><use transform="rotate(52 44.876 59.91)" fill="#c300ff" stroke="#c300ff" href="#D"/><use transform="rotate(53 44.876 60.3)" fill="#c800ff" stroke="#c800ff" href="#D"/><use transform="rotate(54 44.876 60.676)" fill="#c0f" stroke="#c0f" href="#D"/><use transform="rotate(55 44.876 61.039)" fill="#d000ff" stroke="#d000ff" href="#D"/><use transform="rotate(56 44.876 61.391)" fill="#d400ff" stroke="#d400ff" href="#D"/><use transform="rotate(57 44.876 61.731)" fill="#d900ff" stroke="#d900ff" href="#D"/><use transform="rotate(58 44.876 62.06)" fill="#d0f" stroke="#d0f" href="#D"/><use transform="rotate(59 44.876 62.379)" fill="#e100ff" stroke="#e100ff" href="#D"/><use transform="rotate(60 44.876 62.689)" fill="#e500ff" stroke="#e500ff" href="#D"/><use transform="rotate(61 44.876 62.989)" fill="#ea00ff" stroke="#ea00ff" href="#D"/><use transform="rotate(62 44.876 63.28)" fill="#e0f" stroke="#e0f" href="#D"/><use transform="rotate(63 44.876 63.563)" fill="#f200ff" stroke="#f200ff" href="#D"/><use transform="rotate(64 44.876 63.839)" fill="#f600ff" stroke="#f600ff" href="#D"/><use transform="rotate(65 44.876 64.106)" fill="#fa00ff" stroke="#fa00ff" href="#D"/><use transform="rotate(66 44.876 64.366)" fill="#f0f" stroke="#f0f" href="#D"/><use transform="rotate(67 44.876 64.62)" fill="#ff00fb" stroke="#ff00fb" href="#D"/><use transform="rotate(68 44.876 64.867)" fill="#ff00f7" stroke="#ff00f7" href="#D"/><use transform="rotate(69 44.876 65.107)" fill="#ff00f3" stroke="#ff00f3" href="#D"/><use transform="rotate(70 44.876 65.342)" fill="#f0e" stroke="#f0e" href="#D"/><use transform="rotate(71 44.876 65.571)" fill="#ff00ea" stroke="#ff00ea" href="#D"/><use transform="rotate(72 44.876 65.794)" fill="#ff00e6" stroke="#ff00e6" href="#D"/><use transform="rotate(73 44.876 66.012)" fill="#ff00e2" stroke="#ff00e2" href="#D"/><use transform="rotate(74 44.876 66.225)" fill="#f0d" stroke="#f0d" href="#D"/><use transform="rotate(75 44.876 66.432)" fill="#ff00d9" stroke="#ff00d9" href="#D"/><use transform="rotate(76 44.876 66.636)" fill="#ff00d5" stroke="#ff00d5" href="#D"/><use transform="rotate(77 44.876 66.835)" fill="#ff00d1" stroke="#ff00d1" href="#D"/><use transform="rotate(78 44.876 67.029)" fill="#f0c" stroke="#f0c" href="#D"/><use transform="rotate(79 44.876 67.219)" fill="#ff00c8" stroke="#ff00c8" href="#D"/><use transform="rotate(80 44.876 67.406)" fill="#ff00c4" stroke="#ff00c4" href="#D"/><use transform="rotate(81 44.876 67.588)" fill="#ff00c0" stroke="#ff00c0" href="#D"/><use transform="rotate(82 44.876 67.767)" fill="#f0b" stroke="#f0b" href="#D"/><use transform="rotate(83 44.876 67.942)" fill="#ff00b7" stroke="#ff00b7" href="#D"/><use transform="rotate(84 44.876 68.114)" fill="#ff00b3" stroke="#ff00b3" href="#D"/><use transform="rotate(85 44.876 68.283)" fill="#ff00af" stroke="#ff00af" href="#D"/><use transform="rotate(86 44.876 68.448)" fill="#ff00ab" stroke="#ff00ab" href="#D"/><use transform="rotate(87 44.876 68.61)" fill="#ff00a6" stroke="#ff00a6" href="#D"/><use transform="rotate(88 44.876 68.77)" fill="#ff00a2" stroke="#ff00a2" href="#D"/><use transform="rotate(89 44.876 68.926)" fill="#ff009e" stroke="#ff009e" href="#D"/><use transform="rotate(90 44.876 69.08)" fill="#ff009a" stroke="#ff009a" href="#D"/><use transform="rotate(91 44.876 69.231)" fill="#ff0095" stroke="#ff0095" href="#D"/><use transform="rotate(92 44.876 69.379)" fill="#ff0091" stroke="#ff0091" href="#D"/><use transform="rotate(93 44.876 69.525)" fill="#ff008d" stroke="#ff008d" href="#D"/><use transform="rotate(94 44.876 69.669)" fill="#ff0089" stroke="#ff0089" href="#D"/><use transform="rotate(95 44.876 69.81)" fill="#ff0084" stroke="#ff0084" href="#D"/><use transform="rotate(96 44.876 69.949)" fill="#ff0080" stroke="#ff0080" href="#D"/><use transform="rotate(97 44.876 70.086)" fill="#ff007c" stroke="#ff007c" href="#D"/><use transform="rotate(98 44.876 70.221)" fill="#ff0078" stroke="#ff0078" href="#D"/><use transform="rotate(99 44.876 70.354)" fill="#ff0073" stroke="#ff0073" href="#D"/><use transform="rotate(100 44.876 70.485)" fill="#ff006f" stroke="#ff006f" href="#D"/><use transform="rotate(101 44.876 70.613)" fill="#ff006b" stroke="#ff006b" href="#D"/><use transform="rotate(102 44.876 70.741)" fill="#ff0067" stroke="#ff0067" href="#D"/><use transform="rotate(103 44.876 70.866)" fill="#ff0062" stroke="#ff0062" href="#D"/><use transform="rotate(104 44.876 70.989)" fill="#ff005e" stroke="#ff005e" href="#D"/><use transform="rotate(105 44.876 71.111)" fill="#ff005a" stroke="#ff005a" href="#D"/><use transform="rotate(106 44.876 71.231)" fill="#ff0056" stroke="#ff0056" href="#D"/><use transform="rotate(107 44.876 71.35)" fill="#ff0052" stroke="#ff0052" href="#D"/><use transform="rotate(108 44.876 71.467)" fill="#ff004d" stroke="#ff004d" href="#D"/><use transform="rotate(109 44.876 71.583)" fill="#ff0049" stroke="#ff0049" href="#D"/><use transform="rotate(110 44.876 71.697)" fill="#ff0045" stroke="#ff0045" href="#D"/><use transform="rotate(111 44.876 71.81)" fill="#ff0041" stroke="#ff0041" href="#D"/><use transform="rotate(112 44.876 71.922)" fill="#ff003c" stroke="#ff003c" href="#D"/><use transform="rotate(113 44.876 72.032)" fill="#ff0038" stroke="#ff0038" href="#D"/><use transform="rotate(114 44.876 72.141)" fill="#ff0034" stroke="#ff0034" href="#D"/><use transform="rotate(115 44.876 72.248)" fill="#ff0030" stroke="#ff0030" href="#D"/><use transform="rotate(116 44.876 72.355)" fill="#ff002b" stroke="#ff002b" href="#D"/><use transform="rotate(117 44.876 72.46)" fill="#ff0027" stroke="#ff0027" href="#D"/><use transform="rotate(118 44.876 72.565)" fill="#ff0023" stroke="#ff0023" href="#D"/><use transform="rotate(119 44.876 72.668)" fill="#ff001f" stroke="#ff001f" href="#D"/><use transform="rotate(120 44.876 72.77)" fill="#ff001a" stroke="#ff001a" href="#D"/><use transform="rotate(121 44.876 72.871)" fill="#ff0016" stroke="#ff0016" href="#D"/><use transform="rotate(122 44.876 72.971)" fill="#ff0012" stroke="#ff0012" href="#D"/><use transform="rotate(123 44.876 73.07)" fill="#ff000e" stroke="#ff000e" href="#D"/><use transform="rotate(124 44.876 73.168)" fill="#ff0009" stroke="#ff0009" href="#D"/><use transform="rotate(125 44.876 73.266)" fill="#ff0005" stroke="#ff0005" href="#D"/><use transform="rotate(126 44.876 73.362)" fill="#ff0001" stroke="#ff0001" href="#D"/><use transform="rotate(127 44.876 73.458)" fill="#ff0300" stroke="#ff0300" href="#D"/><use transform="rotate(128 44.876 73.552)" fill="#ff0700" stroke="#ff0700" href="#D"/><use transform="rotate(129 44.876 73.646)" fill="#ff0c00" stroke="#ff0c00" href="#D"/><use transform="rotate(130 44.876 73.739)" fill="#ff1000" stroke="#ff1000" href="#D"/><use transform="rotate(131 44.876 73.832)" fill="#ff1400" stroke="#ff1400" href="#D"/><use transform="rotate(132 44.876 73.923)" fill="#ff1800" stroke="#ff1800" href="#D"/><use transform="rotate(133 44.876 74.014)" fill="#ff1d00" stroke="#ff1d00" href="#D"/><use transform="rotate(134 44.876 74.105)" fill="#ff2100" stroke="#ff2100" href="#D"/><use transform="rotate(135 44.876 74.194)" fill="#ff2500" stroke="#ff2500" href="#D"/><use transform="rotate(136 44.876 74.283)" fill="#ff2900" stroke="#ff2900" href="#D"/><use transform="rotate(137 44.876 74.371)" fill="#ff2e00" stroke="#ff2e00" href="#D"/><use transform="rotate(138 44.876 74.459)" fill="#ff3200" stroke="#ff3200" href="#D"/><use transform="rotate(139 44.876 74.546)" fill="#ff3600" stroke="#ff3600" href="#D"/><use transform="rotate(140 44.876 74.633)" fill="#ff3a00" stroke="#ff3a00" href="#D"/><use transform="rotate(141 44.876 74.719)" fill="#ff3f00" stroke="#ff3f00" href="#D"/><use transform="rotate(142 44.876 74.804)" fill="#ff4300" stroke="#ff4300" href="#D"/><use transform="rotate(143 44.876 74.889)" fill="#ff4700" stroke="#ff4700" href="#D"/><use transform="rotate(144 44.876 74.974)" fill="#ff4b00" stroke="#ff4b00" href="#D"/><use transform="rotate(145 44.876 75.058)" fill="#ff5000" stroke="#ff5000" href="#D"/><use transform="rotate(146 44.876 75.141)" fill="#ff5400" stroke="#ff5400" href="#D"/><use transform="rotate(147 44.876 75.224)" fill="#ff5800" stroke="#ff5800" href="#D"/><use transform="rotate(148 44.876 75.307)" fill="#ff5c00" stroke="#ff5c00" href="#D"/><use transform="rotate(149 44.876 75.389)" fill="#ff6000" stroke="#ff6000" href="#D"/><use transform="rotate(150 44.876 75.471)" fill="#ff6500" stroke="#ff6500" href="#D"/><use transform="rotate(151 44.876 75.553)" fill="#ff6900" stroke="#ff6900" href="#D"/><use transform="rotate(152 44.876 75.634)" fill="#ff6d00" stroke="#ff6d00" href="#D"/><use transform="rotate(153 44.876 75.714)" fill="#ff7100" stroke="#ff7100" href="#D"/><use transform="rotate(154 44.876 75.795)" fill="#ff7600" stroke="#ff7600" href="#D"/><use transform="rotate(155 44.876 75.875)" fill="#ff7a00" stroke="#ff7a00" href="#D"/><use transform="rotate(156 44.876 75.955)" fill="#ff7e00" stroke="#ff7e00" href="#D"/><use transform="rotate(157 44.876 76.034)" fill="#ff8200" stroke="#ff8200" href="#D"/><use transform="rotate(158 44.876 76.113)" fill="#ff8700" stroke="#ff8700" href="#D"/><use transform="rotate(159 44.876 76.192)" fill="#ff8b00" stroke="#ff8b00" href="#D"/><use transform="rotate(160 44.876 76.271)" fill="#ff8f00" stroke="#ff8f00" href="#D"/><use transform="rotate(161 44.876 76.349)" fill="#ff9300" stroke="#ff9300" href="#D"/><use transform="rotate(162 44.876 76.428)" fill="#ff9800" stroke="#ff9800" href="#D"/><use transform="rotate(163 44.876 76.506)" fill="#ff9c00" stroke="#ff9c00" href="#D"/><use transform="rotate(164 44.876 76.583)" fill="#ffa000" stroke="#ffa000" href="#D"/><use transform="rotate(165 44.876 76.661)" fill="#ffa400" stroke="#ffa400" href="#D"/><use transform="rotate(166 44.876 76.738)" fill="#ffa900" stroke="#ffa900" href="#D"/><use transform="rotate(167 44.876 76.816)" fill="#ffad00" stroke="#ffad00" href="#D"/><use transform="rotate(168 44.876 76.893)" fill="#ffb100" stroke="#ffb100" href="#D"/><use transform="rotate(169 44.876 76.97)" fill="#ffb500" stroke="#ffb500" href="#D"/><use transform="rotate(170 44.876 77.047)" fill="#ffb900" stroke="#ffb900" href="#D"/><use transform="rotate(171 44.876 77.123)" fill="#ffbe00" stroke="#ffbe00" href="#D"/><use transform="rotate(172 44.876 77.2)" fill="#ffc200" stroke="#ffc200" href="#D"/><use transform="rotate(173 44.876 77.276)" fill="#ffc600" stroke="#ffc600" href="#D"/><use transform="rotate(174 44.876 77.353)" fill="#ffca00" stroke="#ffca00" href="#D"/><use transform="rotate(175 44.876 77.429)" fill="#ffcf00" stroke="#ffcf00" href="#D"/><use transform="rotate(176 44.876 77.506)" fill="#ffd300" stroke="#ffd300" href="#D"/><use transform="rotate(177 44.876 77.582)" fill="gold" stroke="gold" href="#D"/><use transform="rotate(178 44.876 77.658)" fill="#ffdb00" stroke="#ffdb00" href="#D"/><use transform="rotate(179 44.876 77.734)" fill="#ffe000" stroke="#ffe000" href="#D"/><use transform="rotate(180 44.876 77.81)" fill="#ffe400" stroke="#ffe400" href="#D"/><use transform="rotate(181 44.876 77.887)" fill="#ffe800" stroke="#ffe800" href="#D"/><use transform="rotate(182 44.876 77.963)" fill="#ffec00" stroke="#ffec00" href="#D"/><use transform="rotate(183 44.876 78.039)" fill="#fff100" stroke="#fff100" href="#D"/><use transform="rotate(184 44.876 78.115)" fill="#fff500" stroke="#fff500" href="#D"/><use transform="rotate(185 44.876 78.192)" fill="#fff900" stroke="#fff900" href="#D"/><use transform="rotate(186 44.876 78.268)" fill="#fffd00" stroke="#fffd00" href="#D"/><use transform="rotate(187 44.876 78.344)" fill="#fcff00" stroke="#fcff00" href="#D"/><use transform="rotate(188 44.876 78.421)" fill="#f8ff00" stroke="#f8ff00" href="#D"/><use transform="rotate(189 44.876 78.498)" fill="#f4ff00" stroke="#f4ff00" href="#D"/><use transform="rotate(190 44.876 78.574)" fill="#f0ff00" stroke="#f0ff00" href="#D"/><use transform="rotate(191 44.876 78.651)" fill="#ecff00" stroke="#ecff00" href="#D"/><use transform="rotate(192 44.876 78.728)" fill="#e7ff00" stroke="#e7ff00" href="#D"/><use transform="rotate(193 44.876 78.805)" fill="#e3ff00" stroke="#e3ff00" href="#D"/><use transform="rotate(194 44.876 78.882)" fill="#dfff00" stroke="#dfff00" href="#D"/><use transform="rotate(195 44.876 78.96)" fill="#dbff00" stroke="#dbff00" href="#D"/><use transform="rotate(196 44.876 79.037)" fill="#d6ff00" stroke="#d6ff00" href="#D"/><use transform="rotate(197 44.876 79.115)" fill="#d2ff00" stroke="#d2ff00" href="#D"/><use transform="rotate(198 44.876 79.193)" fill="#ceff00" stroke="#ceff00" href="#D"/><use transform="rotate(199 44.876 79.271)" fill="#caff00" stroke="#caff00" href="#D"/><use transform="rotate(200 44.876 79.35)" fill="#c5ff00" stroke="#c5ff00" href="#D"/><use transform="rotate(201 44.876 79.429)" fill="#c1ff00" stroke="#c1ff00" href="#D"/><use transform="rotate(202 44.876 79.508)" fill="#bdff00" stroke="#bdff00" href="#D"/><use transform="rotate(203 44.876 79.587)" fill="#b9ff00" stroke="#b9ff00" href="#D"/><use transform="rotate(204 44.876 79.666)" fill="#b4ff00" stroke="#b4ff00" href="#D"/><use transform="rotate(205 44.876 79.746)" fill="#b0ff00" stroke="#b0ff00" href="#D"/><use transform="rotate(206 44.876 79.826)" fill="#acff00" stroke="#acff00" href="#D"/><use transform="rotate(207 44.876 79.906)" fill="#a8ff00" stroke="#a8ff00" href="#D"/><use transform="rotate(208 44.876 79.987)" fill="#a3ff00" stroke="#a3ff00" href="#D"/><use transform="rotate(209 44.876 80.068)" fill="#9fff00" stroke="#9fff00" href="#D"/><use transform="rotate(210 44.876 80.15)" fill="#9bff00" stroke="#9bff00" href="#D"/><use transform="rotate(211 44.876 80.232)" fill="#97ff00" stroke="#97ff00" href="#D"/><use transform="rotate(212 44.876 80.314)" fill="#93ff00" stroke="#93ff00" href="#D"/><use transform="rotate(213 44.876 80.397)" fill="#8eff00" stroke="#8eff00" href="#D"/><use transform="rotate(214 44.876 80.48)" fill="#8aff00" stroke="#8aff00" href="#D"/><use transform="rotate(215 44.876 80.563)" fill="#86ff00" stroke="#86ff00" href="#D"/><use transform="rotate(216 44.876 80.647)" fill="#82ff00" stroke="#82ff00" href="#D"/><use transform="rotate(217 44.876 80.732)" fill="#7dff00" stroke="#7dff00" href="#D"/><use transform="rotate(218 44.876 80.817)" fill="#79ff00" stroke="#79ff00" href="#D"/><use transform="rotate(219 44.876 80.902)" fill="#75ff00" stroke="#75ff00" href="#D"/><use transform="rotate(220 44.876 80.988)" fill="#71ff00" stroke="#71ff00" href="#D"/><use transform="rotate(221 44.876 81.075)" fill="#6cff00" stroke="#6cff00" href="#D"/><use transform="rotate(222 44.876 81.162)" fill="#68ff00" stroke="#68ff00" href="#D"/><use transform="rotate(223 44.876 81.25)" fill="#64ff00" stroke="#64ff00" href="#D"/><use transform="rotate(224 44.876 81.338)" fill="#60ff00" stroke="#60ff00" href="#D"/><use transform="rotate(225 44.876 81.427)" fill="#5bff00" stroke="#5bff00" href="#D"/><use transform="rotate(226 44.876 81.516)" fill="#57ff00" stroke="#57ff00" href="#D"/><use transform="rotate(227 44.876 81.607)" fill="#53ff00" stroke="#53ff00" href="#D"/><use transform="rotate(228 44.876 81.698)" fill="#4fff00" stroke="#4fff00" href="#D"/><use transform="rotate(229 44.876 81.789)" fill="#4aff00" stroke="#4aff00" href="#D"/><use transform="rotate(230 44.876 81.882)" fill="#46ff00" stroke="#46ff00" href="#D"/><use transform="rotate(231 44.876 81.975)" fill="#42ff00" stroke="#42ff00" href="#D"/><use transform="rotate(232 44.876 82.069)" fill="#3eff00" stroke="#3eff00" href="#D"/><use transform="rotate(233 44.876 82.163)" fill="#3aff00" stroke="#3aff00" href="#D"/><use transform="rotate(234 44.876 82.259)" fill="#35ff00" stroke="#35ff00" href="#D"/><use transform="rotate(235 44.876 82.355)" fill="#31ff00" stroke="#31ff00" href="#D"/><use transform="rotate(236 44.876 82.453)" fill="#2dff00" stroke="#2dff00" href="#D"/><use transform="rotate(237 44.876 82.551)" fill="#29ff00" stroke="#29ff00" href="#D"/><use transform="rotate(238 44.876 82.65)" fill="#24ff00" stroke="#24ff00" href="#D"/><use transform="rotate(239 44.876 82.75)" fill="#20ff00" stroke="#20ff00" href="#D"/><use transform="rotate(240 44.876 82.851)" fill="#1cff00" stroke="#1cff00" href="#D"/><use transform="rotate(241 44.876 82.953)" fill="#18ff00" stroke="#18ff00" href="#D"/><use transform="rotate(242 44.876 83.056)" fill="#13ff00" stroke="#13ff00" href="#D"/><use transform="rotate(243 44.876 83.161)" fill="#0fff00" stroke="#0fff00" href="#D"/><use transform="rotate(244 44.876 83.266)" fill="#0bff00" stroke="#0bff00" href="#D"/><use transform="rotate(245 44.876 83.372)" fill="#07ff00" stroke="#07ff00" href="#D"/><use transform="rotate(246 44.876 83.48)" fill="#02ff00" stroke="#02ff00" href="#D"/><use transform="rotate(247 44.876 83.589)" fill="#00ff02" stroke="#00ff02" href="#D"/><use transform="rotate(248 44.876 83.699)" fill="#00ff06" stroke="#00ff06" href="#D"/><use transform="rotate(249 44.876 83.811)" fill="#00ff0a" stroke="#00ff0a" href="#D"/><use transform="rotate(250 44.876 83.924)" fill="#00ff0f" stroke="#00ff0f" href="#D"/><use transform="rotate(251 44.876 84.038)" fill="#00ff13" stroke="#00ff13" href="#D"/><use transform="rotate(252 44.876 84.154)" fill="#00ff17" stroke="#00ff17" href="#D"/><use transform="rotate(253 44.876 84.271)" fill="#00ff1b" stroke="#00ff1b" href="#D"/><use transform="rotate(254 44.876 84.389)" fill="#00ff1f" stroke="#00ff1f" href="#D"/><use transform="rotate(255 44.876 84.51)" fill="#00ff24" stroke="#00ff24" href="#D"/><use transform="rotate(256 44.876 84.632)" fill="#00ff28" stroke="#00ff28" href="#D"/><use transform="rotate(257 44.876 84.755)" fill="#00ff2c" stroke="#00ff2c" href="#D"/><use transform="rotate(258 44.876 84.88)" fill="#00ff30" stroke="#00ff30" href="#D"/><use transform="rotate(259 44.876 85.007)" fill="#00ff35" stroke="#00ff35" href="#D"/><use transform="rotate(260 44.876 85.136)" fill="#00ff39" stroke="#00ff39" href="#D"/><use transform="rotate(261 44.876 85.267)" fill="#00ff3d" stroke="#00ff3d" href="#D"/><use transform="rotate(262 44.876 85.4)" fill="#00ff41" stroke="#00ff41" href="#D"/><use transform="rotate(263 44.876 85.535)" fill="#00ff46" stroke="#00ff46" href="#D"/><use transform="rotate(264 44.876 85.672)" fill="#00ff4a" stroke="#00ff4a" href="#D"/><use transform="rotate(265 44.876 85.811)" fill="#00ff4e" stroke="#00ff4e" href="#D"/><use transform="rotate(266 44.876 85.952)" fill="#00ff52" stroke="#00ff52" href="#D"/><use transform="rotate(267 44.876 86.095)" fill="#00ff57" stroke="#00ff57" href="#D"/><use transform="rotate(268 44.876 86.242)" fill="#00ff5b" stroke="#00ff5b" href="#D"/><use transform="rotate(269 44.876 86.39)" fill="#00ff5f" stroke="#00ff5f" href="#D"/><use transform="rotate(270 44.876 86.541)" fill="#00ff63" stroke="#00ff63" href="#D"/><use transform="rotate(271 44.876 86.695)" fill="#00ff68" stroke="#00ff68" href="#D"/><use transform="rotate(272 44.876 86.851)" fill="#00ff6c" stroke="#00ff6c" href="#D"/><use transform="rotate(273 44.876 87.011)" fill="#00ff70" stroke="#00ff70" href="#D"/><use transform="rotate(274 44.876 87.173)" fill="#00ff74" stroke="#00ff74" href="#D"/><use transform="rotate(275 44.876 87.338)" fill="#00ff78" stroke="#00ff78" href="#D"/><use transform="rotate(276 44.876 87.507)" fill="#00ff7d" stroke="#00ff7d" href="#D"/><use transform="rotate(277 44.876 87.679)" fill="#00ff81" stroke="#00ff81" href="#D"/><use transform="rotate(278 44.876 87.854)" fill="#00ff85" stroke="#00ff85" href="#D"/><use transform="rotate(279 44.876 88.033)" fill="#00ff89" stroke="#00ff89" href="#D"/><use transform="rotate(280 44.876 88.215)" fill="#00ff8e" stroke="#00ff8e" href="#D"/><use transform="rotate(281 44.876 88.402)" fill="#00ff92" stroke="#00ff92" href="#D"/><use transform="rotate(282 44.876 88.592)" fill="#00ff96" stroke="#00ff96" href="#D"/><use transform="rotate(283 44.876 88.786)" fill="#00ff9a" stroke="#00ff9a" href="#D"/><use transform="rotate(284 44.876 88.985)" fill="#00ff9f" stroke="#00ff9f" href="#D"/><use transform="rotate(285 44.876 89.188)" fill="#00ffa3" stroke="#00ffa3" href="#D"/><use transform="rotate(286 44.876 89.396)" fill="#00ffa7" stroke="#00ffa7" href="#D"/><use transform="rotate(287 44.876 89.609)" fill="#00ffab" stroke="#00ffab" href="#D"/><use transform="rotate(288 44.876 89.827)" fill="#00ffb0" stroke="#00ffb0" href="#D"/><use transform="rotate(289 44.876 90.05)" fill="#00ffb4" stroke="#00ffb4" href="#D"/><use transform="rotate(290 44.876 90.279)" fill="#00ffb8" stroke="#00ffb8" href="#D"/><use transform="rotate(291 44.876 90.514)" fill="#00ffbc" stroke="#00ffbc" href="#D"/><use transform="rotate(292 44.876 90.754)" fill="#00ffc1" stroke="#00ffc1" href="#D"/><use transform="rotate(293 44.876 91.001)" fill="#00ffc5" stroke="#00ffc5" href="#D"/><use transform="rotate(294 44.876 91.254)" fill="#00ffc9" stroke="#00ffc9" href="#D"/><use transform="rotate(295 44.876 91.515)" fill="#00ffcd" stroke="#00ffcd" href="#D"/><use transform="rotate(296 44.876 91.782)" fill="#00ffd1" stroke="#00ffd1" href="#D"/><use transform="rotate(297 44.876 92.058)" fill="#00ffd6" stroke="#00ffd6" href="#D"/><use transform="rotate(298 44.876 92.341)" fill="#00ffda" stroke="#00ffda" href="#D"/><use transform="rotate(299 44.876 92.632)" fill="#00ffde" stroke="#00ffde" href="#D"/><use transform="rotate(300 44.876 92.932)" fill="#00ffe2" stroke="#00ffe2" href="#D"/><use transform="rotate(301 44.876 93.242)" fill="#00ffe7" stroke="#00ffe7" href="#D"/><use transform="rotate(302 44.876 93.561)" fill="#00ffeb" stroke="#00ffeb" href="#D"/><use transform="rotate(303 44.876 93.89)" fill="#00ffef" stroke="#00ffef" href="#D"/><use transform="rotate(304 44.876 94.23)" fill="#00fff3" stroke="#00fff3" href="#D"/><use transform="rotate(305 44.876 94.582)" fill="#00fff8" stroke="#00fff8" href="#D"/><use transform="rotate(306 44.876 94.945)" fill="#00fffc" stroke="#00fffc" href="#D"/><use transform="rotate(307 44.876 95.321)" fill="#00feff" stroke="#00feff" href="#D"/><use transform="rotate(308 44.876 95.711)" fill="#00faff" stroke="#00faff" href="#D"/><use transform="rotate(309 44.876 96.115)" fill="#00f5ff" stroke="#00f5ff" href="#D"/><use transform="rotate(310 44.876 96.533)" fill="#00f1ff" stroke="#00f1ff" href="#D"/><use transform="rotate(311 44.876 96.968)" fill="#00edff" stroke="#00edff" href="#D"/><use transform="rotate(312 44.876 97.42)" fill="#00e9ff" stroke="#00e9ff" href="#D"/><use transform="rotate(313 44.876 97.889)" fill="#00e4ff" stroke="#00e4ff" href="#D"/><use transform="rotate(314 44.876 98.378)" fill="#00e0ff" stroke="#00e0ff" href="#D"/><use transform="rotate(315 44.876 98.888)" fill="#00dcff" stroke="#00dcff" href="#D"/><use transform="rotate(316 44.876 99.419)" fill="#00d8ff" stroke="#00d8ff" href="#D"/><use transform="rotate(317 44.876 99.974)" fill="#00d4ff" stroke="#00d4ff" href="#D"/><use transform="rotate(318 44.876 100.55)" fill="#00cfff" stroke="#00cfff" href="#D"/><use transform="rotate(319 44.876 101.16)" fill="#00cbff" stroke="#00cbff" href="#D"/><use transform="rotate(320 44.876 101.8)" fill="#00c7ff" stroke="#00c7ff" href="#D"/><use transform="rotate(321 44.876 102.46)" fill="#00c3ff" stroke="#00c3ff" href="#D"/><use transform="rotate(322 44.876 103.17)" fill="#00beff" stroke="#00beff" href="#D"/><use transform="rotate(323 44.876 103.9)" fill="#00baff" stroke="#00baff" href="#D"/><use transform="rotate(324 44.876 104.68)" fill="#00b6ff" stroke="#00b6ff" href="#D"/><use transform="rotate(325 44.876 105.5)" fill="#00b2ff" stroke="#00b2ff" href="#D"/><use transform="rotate(326 44.876 106.37)" fill="#00adff" stroke="#00adff" href="#D"/><use transform="rotate(327 44.876 107.28)" fill="#00a9ff" stroke="#00a9ff" href="#D"/><use transform="rotate(328 44.876 108.26)" fill="#00a5ff" stroke="#00a5ff" href="#D"/><use transform="rotate(329 44.876 109.29)" fill="#00a1ff" stroke="#00a1ff" href="#D"/><use transform="rotate(330 44.876 110.39)" fill="#009cff" stroke="#009cff" href="#D"/><use transform="rotate(331 44.876 111.57)" fill="#0098ff" stroke="#0098ff" href="#D"/><use transform="rotate(332 44.876 112.83)" fill="#0094ff" stroke="#0094ff" href="#D"/><use transform="rotate(333 44.876 114.18)" fill="#0090ff" stroke="#0090ff" href="#D"/><use transform="rotate(334 44.876 115.63)" fill="#008bff" stroke="#008bff" href="#D"/><use transform="rotate(335 44.876 117.19)" fill="#0087ff" stroke="#0087ff" href="#D"/><use transform="rotate(336 44.876 118.88)" fill="#0083ff" stroke="#0083ff" href="#D"/><use transform="rotate(337 44.876 120.72)" fill="#007fff" stroke="#007fff" href="#D"/><use transform="rotate(338 44.876 122.73)" fill="#007bff" stroke="#007bff" href="#D"/><use transform="rotate(339 44.876 124.92)" fill="#0076ff" stroke="#0076ff" href="#D"/><use transform="rotate(340 44.876 127.32)" fill="#0072ff" stroke="#0072ff" href="#D"/><use transform="rotate(341 44.876 129.98)" fill="#006eff" stroke="#006eff" href="#D"/><use transform="rotate(342 44.876 132.93)" fill="#006aff" stroke="#006aff" href="#D"/><use transform="rotate(343 44.876 136.23)" fill="#0065ff" stroke="#0065ff" href="#D"/><use transform="rotate(344 44.876 139.93)" fill="#0061ff" stroke="#0061ff" href="#D"/><use transform="rotate(345 44.876 144.13)" fill="#005dff" stroke="#005dff" href="#D"/><use transform="rotate(346 44.876 148.92)" fill="#0059ff" stroke="#0059ff" href="#D"/><use transform="rotate(347 44.876 154.44)" fill="#0054ff" stroke="#0054ff" href="#D"/><use transform="rotate(348 44.876 160.88)" fill="#0050ff" stroke="#0050ff" href="#D"/><use transform="rotate(349 44.876 168.48)" fill="#004cff" stroke="#004cff" href="#D"/><use transform="rotate(350 44.876 177.6)" fill="#0048ff" stroke="#0048ff" href="#D"/><use transform="rotate(351 44.876 188.74)" fill="#0043ff" stroke="#0043ff" href="#D"/><use transform="rotate(352 44.876 202.66)" fill="#003fff" stroke="#003fff" href="#D"/><use transform="rotate(353 44.876 220.55)" fill="#003bff" stroke="#003bff" href="#D"/><use transform="rotate(354 44.876 244.4)" fill="#0037ff" stroke="#0037ff" href="#D"/><use transform="rotate(355 44.876 277.77)" fill="#0032ff" stroke="#0032ff" href="#D"/><use transform="rotate(356 44.876 327.82)" fill="#002eff" stroke="#002eff" href="#D"/><use transform="rotate(357 44.876 411.22)" fill="#002aff" stroke="#002aff" href="#D"/><use transform="rotate(358 44.876 577.99)" fill="#0026ff" stroke="#0026ff" href="#D"/><use transform="rotate(359 44.876 1078.2)" fill="#02f" stroke="#02f" href="#D"/></g><g transform="matrix(1.0325 0 0 1.0325 -1.067054 .042)"><path d="M33.142 60h-1.66c-.077-.028-.154-.035-.232-.035l-2.638-.232a27.25 27.25 0 0 1-4.797-1.069c-2.68-.858-5.177-2.088-7.492-3.692-2.146-1.491-4.045-3.249-5.698-5.274a27.56 27.56 0 0 1-4.545-7.883c-.964-2.56-1.541-5.211-1.717-7.947 0-.148-.028-.295-.077-.443v-2.89c.049-.127.07-.26.077-.394l.19-1.955a27.62 27.62 0 0 1 2.779-8.89c.985-1.934 2.181-3.734 3.587-5.395a28.08 28.08 0 0 1 4.685-4.402 27.77 27.77 0 0 1 9.314-4.536c1.646-.45 3.328-.745 5.029-.886.302-.028.619 0 .921-.077h2.842c.218.063.443.028.661.049a31.69 31.69 0 0 1 3.355.457 27.67 27.67 0 0 1 9.736 3.931c2.329 1.498 4.383 3.305 6.176 5.408 1.442 1.688 2.666 3.524 3.665 5.506 1.182 2.342 2.026 4.796 2.505 7.377.253 1.364.443 2.743.45 4.135 0 .092.021.19.028.281v1.66c-.028.105-.028.218-.035.33l-.021.802c-.127 1.702-.394 3.383-.816 5.042a27.74 27.74 0 0 1-3.919 8.671 27.97 27.97 0 0 1-4.713 5.352 28.01 28.01 0 0 1-5.888 3.98c-2.456 1.237-5.037 2.096-7.745 2.566-1.041.183-2.089.302-3.144.365-.278.032-.573.025-.862.087z" fill="#383838"/><path d="M25.003 20.382c-.02.514.072 1.077.223 1.64.289 1.07.767 2.051 1.332 2.977 1.286 2.107 2.906 3.91 4.665 5.585.144.138.315.254.499.343.184.096.367.096.557.014.184-.082.348-.199.486-.35l1.791-1.915c.813-.926 1.588-1.879 2.29-2.902.637-.926 1.207-1.901 1.627-2.957.419-1.05.623-2.133.486-3.272-.23-1.879-.997-3.472-2.368-4.72-1.622-1.474-3.51-2.064-5.636-1.735-3.457.536-5.964 3.719-5.95 7.293z" fill="url(#A)" style="mix-blend-mode:lighten"/><path d="M42.895 45.998a6.07 6.07 0 0 1-1.412-.144c-1.445-.316-2.673-.973-3.616-2.138-.574-.71-1.056-1.48-1.472-2.29-.489-.954-.897-1.948-1.253-2.954a32.13 32.13 0 0 1-1.089-3.718c-.158-.704.02-1.145.798-1.388l3.002-.81c1.682-.369 3.378-.605 5.107-.547a10.84 10.84 0 0 1 1.458.158 6.29 6.29 0 0 1 3.556 1.908c1.657 1.737 2.316 3.81 1.907 6.173-.587 3.376-3.583 5.778-6.987 5.751z" fill="url(#B)"/><path d="M21.105 45.998a6.07 6.07 0 0 0 1.412-.144c1.445-.316 2.673-.973 3.616-2.138.574-.71 1.056-1.48 1.472-2.29.489-.954.897-1.948 1.253-2.954a32.13 32.13 0 0 0 1.089-3.718c.158-.704-.02-1.145-.798-1.388l-3.002-.81c-1.682-.369-3.378-.605-5.107-.547a10.84 10.84 0 0 0-1.458.158 6.29 6.29 0 0 0-3.556 1.908c-1.657 1.737-2.315 3.81-1.907 6.173.587 3.376 3.583 5.778 6.987 5.751z" fill="url(#C)"/></g></svg>