<?xml version="1.0" encoding="UTF-8"?><svg id="Layer_1" xmlns="http://www.w3.org/2000/svg" width="400" height="397.91" xmlns:xlink="http://www.w3.org/1999/xlink" viewBox="0 0 400 397.91"><defs><style>.cls-1{fill:url(#linear-gradient-2);}.cls-2{fill:url(#linear-gradient);}</style><linearGradient id="linear-gradient" x1="-94.52" y1="577.46" x2="-78.7" y2="561.59" gradientTransform="translate(1219 7254) scale(12.5 -12.5)" gradientUnits="userSpaceOnUse"><stop offset="0" stop-color="#387eb8"/><stop offset="1" stop-color="#366994"/></linearGradient><linearGradient id="linear-gradient-2" x1="-84.79" y1="567.36" x2="-67.8" y2="551.08" gradientTransform="translate(1219 7254) scale(12.5 -12.5)" gradientUnits="userSpaceOnUse"><stop offset="0" stop-color="#ffe052"/><stop offset="1" stop-color="#ffc331"/></linearGradient></defs><path class="cls-2" d="M198.56,0c-101.55,0-95.21,44.04-95.21,44.04l.13,45.62h96.9v13.69H64.96S0,95.97,0,198.45s56.71,98.82,56.71,98.82h33.85v-47.55s-1.82-56.71,55.81-56.71h96.1s54,.87,54-52.19V53.09S304.68,0,198.56,0ZM145.13,30.68c9.64,0,17.44,7.8,17.44,17.44s-7.8,17.44-17.44,17.44c-9.62.01-17.42-7.77-17.44-17.39,0-.02,0-.03,0-.05,0-9.64,7.8-17.44,17.44-17.44Z"/><path class="cls-1" d="M201.44,397.91c101.55,0,95.21-44.04,95.21-44.04l-.12-45.63h-96.9v-13.69h135.4s64.98,7.38,64.98-95.09-56.71-98.83-56.71-98.83h-33.85v47.54s1.82,56.71-55.81,56.71h-96.1s-54-.87-54,52.19v87.74s-8.2,53.09,97.91,53.09ZM254.88,367.24c-9.62.01-17.42-7.77-17.44-17.39,0-.02,0-.03,0-.05,0-9.63,7.8-17.43,17.44-17.43s17.44,7.79,17.44,17.43-7.8,17.44-17.44,17.44Z"/></svg>